<svg xmlns="http://www.w3.org/2000/svg" xmlns:xlink="http://www.w3.org/1999/xlink" xmlns:ev="http://www.w3.org/2001/xml-events" version="1.1" baseProfile="full" width="1040" height="1400"  viewBox="0 0 1040 1400" >
<style>
svg {background-color: white;} 
polyline {stroke-linejoin:round; stroke:black; stroke-width:2; fill:white;}
text {font: 16px sans-serif; fill:black;}
</style>

<text x="133" y="20">Mg24</text>

<text x="293" y="20">Ni61</text>

<text x="453" y="20">Na23</text>

<text x="613" y="20">Ba137</text>

<text x="773" y="20">Cu63</text>

<text x="933" y="20">Sr88</text>

<text x="1093" y="20">Rb85</text>

<text x="0" y="40">LAR01</text>

<text x="0" y="60">LAR02</text>

<text x="0" y="80">LAR03</text>

<text x="0" y="100">LAR04</text>

<text x="0" y="120">LAR05</text>

<text x="0" y="140">LAR06</text>

<text x="0" y="160">LAR07</text>

<text x="0" y="180">LAR08</text>

<text x="0" y="200">LAR09</text>

<text x="0" y="220">LAR10</text>

<text x="0" y="240">LAR11</text>

<text x="0" y="260">LAR12</text>

<text x="0" y="280">LAR13</text>

<text x="0" y="300">LAR14</text>

<text x="0" y="320">LAR15</text>

<text x="0" y="340">LAR16</text>

<text x="0" y="360">LAR17</text>

<text x="0" y="380">LAR18</text>

<text x="0" y="400">LAR19</text>

<text x="0" y="420">LAR20</text>

<text x="0" y="440">LAR21</text>

<text x="0" y="460">LAR22</text>

<text x="0" y="480">LAR23</text>

<text x="0" y="500">LAR24</text>

<text x="0" y="520">LAR25</text>

<text x="0" y="540">LAR26</text>

<text x="0" y="560">LAR27</text>

<text x="0" y="580">LAR28</text>

<text x="0" y="600">LAR29</text>

<text x="0" y="620">LAR30</text>

<text x="0" y="640">LAR31</text>

<text x="0" y="660">LAR32</text>

<text x="0" y="680">LAR33</text>

<text x="0" y="700">LAR34</text>

<text x="0" y="720">LAR35</text>

<text x="0" y="740">LAR36</text>

<text x="0" y="760">LAR37</text>

<text x="0" y="780">LAR38</text>

<text x="0" y="800">LAR39</text>

<text x="0" y="820">LAR40</text>

<text x="0" y="840">LAR41</text>

<text x="0" y="860">LAR42</text>

<text x="0" y="880">LAR43</text>

<text x="0" y="900">LAR44</text>

<text x="0" y="920">LAR45</text>

<text x="0" y="940">LAR46</text>

<text x="0" y="960">LAR47</text>

<text x="0" y="980">LAR48</text>

<text x="0" y="1000">LAR49</text>

<text x="0" y="1020">LAR50</text>

<text x="0" y="1040">LAR51</text>

<text x="0" y="1060">LAR52</text>

<text x="0" y="1080">LAR53</text>

<text x="0" y="1100">LAR54</text>

<text x="0" y="1120">LAR55</text>

<text x="0" y="1140">LAR56</text>

<text x="0" y="1160">LAR57</text>

<text x="0" y="1180">LAR58</text>

<text x="0" y="1200">LAR59</text>

<text x="0" y="1220">LAR60</text>

<text x="0" y="1240">LAR61</text>

<text x="0" y="1260">LAR62</text>

<text x="0" y="1280">LAR63</text>

<text x="0" y="1300">LAR64</text>

<text x="0" y="1320">LAR65</text>

<text x="0" y="1340">LAR66</text>

<text x="0" y="1360">LAR67</text>

<text x="0" y="1380">LAR68</text>


<polyline transform="matrix(1 0 0 -1 80 40)" points="0.0,0.66129 10.0,0.24218 20.0,0.18432 30.0,0.07178"/>

<polyline transform="matrix(1 0 0 -1 240 40)" points="0.0,14.62069 10.0,10.34483 20.0,10.34483 30.0,10.89655"/>

<polyline transform="matrix(1 0 0 -1 400 40)" points="0.0,13.30776 10.0,6.73501 20.0,5.15630 30.0,3.29455"/>

<polyline transform="matrix(1 0 0 -1 560 40)" points="0.0,0.07267 10.0,0.12581 20.0,8.90322 30.0,3.00780"/>

<polyline transform="matrix(1 0 0 -1 720 40)" points="0.0,0.45314 10.0,0.06866 20.0,0.08239 30.0,0.10985"/>

<polyline transform="matrix(1 0 0 -1 880 40)" points="0.0,9.68637 10.0,12.40823 20.0,12.92808 30.0,10.84868"/>

<polyline transform="matrix(1 0 0 -1 1040 40)" points="0.0,2.17094 10.0,0.59008 20.0,1.14803 30.0,1.18184"/>

<polyline transform="matrix(1 0 0 -1 80 60)" points="0.0,0.64872 10.0,0.38557 20.0,0.27304"/>

<polyline transform="matrix(1 0 0 -1 240 60)" points="0.0,13.79310 10.0,8.55172 20.0,8.00000"/>

<polyline transform="matrix(1 0 0 -1 400 60)" points="0.0,15.11290 10.0,14.91163 20.0,7.75395"/>

<polyline transform="matrix(1 0 0 -1 560 60)" points="0.0,0.06380 10.0,3.94019 20.0,2.94508"/>

<polyline transform="matrix(1 0 0 -1 720 60)" points="0.0,0.68658 10.0,0.54240 20.0,0.32269"/>

<polyline transform="matrix(1 0 0 -1 880 60)" points="0.0,9.76484 10.0,12.97712 20.0,10.15228"/>

<polyline transform="matrix(1 0 0 -1 1040 60)" points="0.0,5.77225 10.0,9.53420 20.0,5.35802"/>

<polyline transform="matrix(1 0 0 -1 80 80)" points="0.0,0.31564 10.0,0.20059 20.0,0.05551"/>

<polyline transform="matrix(1 0 0 -1 240 80)" points="0.0,6.20690 10.0,8.13793 20.0,6.48276"/>

<polyline transform="matrix(1 0 0 -1 400 80)" points="0.0,8.08101 10.0,8.26341 20.0,5.48336"/>

<polyline transform="matrix(1 0 0 -1 560 80)" points="0.0,0.03378 10.0,0.08354 20.0,3.90256"/>

<polyline transform="matrix(1 0 0 -1 720 80)" points="0.0,0.59046 10.0,0.35702 20.0,0.20597"/>

<polyline transform="matrix(1 0 0 -1 880 80)" points="0.0,9.13219 10.0,10.75059 20.0,11.03995"/>

<polyline transform="matrix(1 0 0 -1 1040 80)" points="0.0,1.46927 10.0,2.54290 20.0,2.87260"/>

<polyline transform="matrix(1 0 0 -1 80 100)" points="0.0,0.58465 10.0,0.20025 20.0,0.21518 30.0,0.23262 40.0,0.22725 50.0,0.19153 60.0,0.10717"/>

<polyline transform="matrix(1 0 0 -1 240 100)" points="0.0,15.31034 10.0,14.62069 20.0,13.65517 30.0,17.51724 40.0,18.75862 50.0,16.82759 60.0,13.65517"/>

<polyline transform="matrix(1 0 0 -1 400 100)" points="0.0,15.30788 10.0,9.13139 20.0,8.77288 30.0,7.48349 40.0,7.99925 50.0,8.04956 60.0,6.37021"/>

<polyline transform="matrix(1 0 0 -1 560 100)" points="0.0,0.18083 10.0,0.37827 20.0,1.49798 30.0,9.25862 40.0,3.43511 50.0,4.96039 60.0,2.83637"/>

<polyline transform="matrix(1 0 0 -1 720 100)" points="0.0,8.08102 10.0,0.39135 20.0,0.97494 30.0,0.51493 40.0,1.05046 50.0,1.02300 60.0,0.30209"/>

<polyline transform="matrix(1 0 0 -1 880 100)" points="0.0,10.25527 10.0,10.00515 20.0,10.55442 30.0,13.39398 40.0,16.86619 50.0,11.44209 60.0,9.56867"/>

<polyline transform="matrix(1 0 0 -1 1040 100)" points="0.0,4.34356 10.0,3.53200 20.0,3.50664 30.0,3.22766 40.0,3.60808 50.0,4.54645 60.0,4.52955"/>

<polyline transform="matrix(1 0 0 -1 80 120)" points="0.0,0.32771 10.0,0.19673 20.0,0.16235 30.0,0.10968 40.0,0.05434"/>

<polyline transform="matrix(1 0 0 -1 240 120)" points="0.0,7.58621 10.0,10.75862 20.0,5.37931 30.0,4.82759 40.0,7.03448"/>

<polyline transform="matrix(1 0 0 -1 400 120)" points="0.0,7.82942 10.0,9.25719 20.0,9.97421 30.0,10.04340 40.0,9.11881"/>

<polyline transform="matrix(1 0 0 -1 560 120)" points="0.0,0.62496 10.0,1.26509 20.0,1.20363 30.0,4.21615 40.0,3.61783"/>

<polyline transform="matrix(1 0 0 -1 720 120)" points="0.0,0.48060 10.0,0.19911 20.0,0.27463 30.0,0.32269 40.0,0.20597"/>

<polyline transform="matrix(1 0 0 -1 880 120)" points="0.0,13.55092 10.0,16.78282 20.0,17.80780 30.0,11.24102 40.0,8.79380"/>

<polyline transform="matrix(1 0 0 -1 1040 120)" points="0.0,3.26148 10.0,7.39538 20.0,12.24787 30.0,17.87810 40.0,18.25852"/>

<polyline transform="matrix(1 0 0 -1 80 140)" points="0.0,0.93936 10.0,0.30423 20.0,0.08184"/>

<polyline transform="matrix(1 0 0 -1 240 140)" points="0.0,10.48276 10.0,6.48276 20.0,8.13793"/>

<polyline transform="matrix(1 0 0 -1 400 140)" points="0.0,20.00000 10.0,12.83603 20.0,8.19423"/>

<polyline transform="matrix(1 0 0 -1 560 140)" points="0.0,0.07141 10.0,0.86955 20.0,2.56167"/>

<polyline transform="matrix(1 0 0 -1 720 140)" points="0.0,4.03708 10.0,1.58599 20.0,0.47374"/>

<polyline transform="matrix(1 0 0 -1 880 140)" points="0.0,8.26905 10.0,13.31551 20.0,10.75550"/>

<polyline transform="matrix(1 0 0 -1 1040 140)" points="0.0,6.81207 10.0,4.81698 20.0,4.57182"/>

<polyline transform="matrix(1 0 0 -1 80 160)" points="0.0,0.47597 10.0,0.13266 20.0,0.06675 30.0,0.12008 40.0,0.09425 50.0,0.04126"/>

<polyline transform="matrix(1 0 0 -1 240 160)" points="0.0,10.20690 10.0,13.65517 20.0,9.51724 30.0,6.20690 40.0,4.82759 50.0,8.00000"/>

<polyline transform="matrix(1 0 0 -1 400 160)" points="0.0,10.33273 10.0,6.82936 20.0,5.34499 30.0,6.80420 40.0,6.89855 50.0,6.26329"/>

<polyline transform="matrix(1 0 0 -1 560 160)" points="0.0,0.14396 10.0,1.42648 20.0,0.53130 30.0,0.58649 40.0,1.75805 50.0,4.41684"/>

<polyline transform="matrix(1 0 0 -1 720 160)" points="0.0,1.28390 10.0,0.11672 20.0,0.00687 30.0,0.26777 40.0,0.15791 50.0,0.19911"/>

<polyline transform="matrix(1 0 0 -1 880 160)" points="0.0,9.08806 10.0,2.55903 20.0,1.31140 30.0,1.44969 40.0,3.45308 50.0,9.44116"/>

<polyline transform="matrix(1 0 0 -1 1040 160)" points="0.0,2.13712 10.0,2.60208 20.0,3.27838 30.0,5.44256 40.0,7.32775 50.0,5.51019"/>

<polyline transform="matrix(1 0 0 -1 80 180)" points="0.0,0.40788 10.0,0.18247 20.0,0.10734 30.0,0.05098 40.0,0.07983"/>

<polyline transform="matrix(1 0 0 -1 240 180)" points="0.0,8.96552 10.0,7.17241 20.0,7.31034 30.0,7.44828 40.0,8.27586"/>

<polyline transform="matrix(1 0 0 -1 400 180)" points="0.0,8.71627 10.0,4.63425 20.0,1.98000 30.0,2.07434 40.0,2.08063"/>

<polyline transform="matrix(1 0 0 -1 560 180)" points="0.0,0.13175 10.0,0.22407 20.0,0.10921 30.0,0.17222 40.0,0.22148"/>

<polyline transform="matrix(1 0 0 -1 720 180)" points="0.0,2.04600 10.0,0.32956 20.0,0.39135 30.0,0.63165 40.0,0.18538"/>

<polyline transform="matrix(1 0 0 -1 880 180)" points="0.0,10.13266 10.0,12.40333 20.0,17.50374 30.0,16.45914 40.0,15.45377"/>

<polyline transform="matrix(1 0 0 -1 1040 180)" points="0.0,0.25361 10.0,0.20374 20.0,0.10905 30.0,0.13188 40.0,0.20881"/>

<polyline transform="matrix(1 0 0 -1 80 200)" points="0.0,0.47362 10.0,0.19103 20.0,0.10734 30.0,0.06675"/>

<polyline transform="matrix(1 0 0 -1 240 200)" points="0.0,4.13793 10.0,11.58621 20.0,10.20690 30.0,10.06897"/>

<polyline transform="matrix(1 0 0 -1 400 200)" points="0.0,9.60312 10.0,5.26951 20.0,3.22536 30.0,2.36367"/>

<polyline transform="matrix(1 0 0 -1 560 200)" points="0.0,0.10478 10.0,0.08872 20.0,0.09479 30.0,0.29256"/>

<polyline transform="matrix(1 0 0 -1 720 200)" points="0.0,0.74837 10.0,0.15105 20.0,0.15105 30.0,0.25403"/>

<polyline transform="matrix(1 0 0 -1 880 200)" points="0.0,8.57311 10.0,10.23565 20.0,13.67352 30.0,14.71813"/>

<polyline transform="matrix(1 0 0 -1 1040 200)" points="0.0,0.32632 10.0,0.25277 20.0,0.27813 30.0,0.24854"/>

<polyline transform="matrix(1 0 0 -1 80 220)" points="0.0,0.45970 10.0,0.11723 20.0,0.09576 30.0,0.05333 40.0,0.06038 50.0,0.04059 60.0,0.04964"/>

<polyline transform="matrix(1 0 0 -1 240 220)" points="0.0,16.13793 10.0,14.06897 20.0,18.20690 30.0,15.03448 40.0,9.93103 50.0,17.79310 60.0,14.34483"/>

<polyline transform="matrix(1 0 0 -1 400 220)" points="0.0,9.84842 10.0,5.72866 20.0,4.11221 30.0,2.58381 40.0,2.12466 50.0,2.03661 60.0,2.20643"/>

<polyline transform="matrix(1 0 0 -1 560 220)" points="0.0,0.06493 10.0,0.19472 20.0,0.12974 30.0,0.43221 40.0,0.17055 50.0,0.16252 60.0,0.30426"/>

<polyline transform="matrix(1 0 0 -1 720 220)" points="0.0,6.41263 10.0,1.18091 20.0,0.35015 30.0,0.15105 40.0,0.25403 50.0,0.42568 60.0,0.20597"/>

<polyline transform="matrix(1 0 0 -1 880 220)" points="0.0,7.92575 10.0,11.48623 20.0,12.66325 30.0,14.72303 40.0,15.44396 50.0,16.76320 60.0,13.68333"/>

<polyline transform="matrix(1 0 0 -1 1040 220)" points="0.0,0.31533 10.0,0.28236 20.0,0.24601 30.0,0.17077 40.0,0.12681 50.0,0.10398 60.0,0.17922"/>

<polyline transform="matrix(1 0 0 -1 80 240)" points="0.0,0.76125 10.0,0.02767 20.0,0.12662 30.0,0.09023 40.0,0.07128 50.0,0.04948 60.0,0.03690 70.0,0.03136 80.0,0.01929 90.0,0.03539"/>

<polyline transform="matrix(1 0 0 -1 240 240)" points="0.0,7.58621 10.0,9.79310 20.0,8.13793 30.0,10.06897 40.0,8.96552 50.0,6.75862 60.0,9.65517 70.0,7.03448 80.0,5.10345 90.0,7.72414"/>

<polyline transform="matrix(1 0 0 -1 400 240)" points="0.0,11.45229 10.0,2.23159 20.0,5.11856 30.0,2.45802 40.0,1.77873 50.0,2.87314 60.0,2.19385 70.0,1.65293 80.0,1.85420 90.0,1.25039"/>

<polyline transform="matrix(1 0 0 -1 560 240)" points="0.0,0.03776 10.0,0.32600 20.0,0.13894 30.0,0.44726 40.0,0.25342 50.0,0.26120 60.0,0.11920 70.0,0.17741 80.0,0.17164 90.0,0.08939"/>

<polyline transform="matrix(1 0 0 -1 720 240)" points="0.0,0.56299 10.0,0.30896 20.0,0.19224 30.0,0.50120 40.0,0.50807 50.0,0.22657 60.0,0.19911 70.0,0.19224 80.0,0.03433 90.0,0.15105"/>

<polyline transform="matrix(1 0 0 -1 880 240)" points="0.0,7.99931 10.0,12.86432 20.0,10.10323 30.0,13.45774 40.0,14.24732 50.0,14.19828 60.0,13.34984 70.0,13.86969 80.0,13.99230 90.0,13.23705"/>

<polyline transform="matrix(1 0 0 -1 1040 240)" points="0.0,0.23924 10.0,0.15724 20.0,0.26799 30.0,0.18514 40.0,0.15470 50.0,0.16569 60.0,0.19275 70.0,0.22741 80.0,0.16654 90.0,0.16231"/>

<polyline transform="matrix(1 0 0 -1 80 260)" points="0.0,0.73626 10.0,0.10734 20.0,0.14843 30.0,0.12059"/>

<polyline transform="matrix(1 0 0 -1 240 260)" points="0.0,4.68966 10.0,11.31034 20.0,7.31034 30.0,7.58621"/>

<polyline transform="matrix(1 0 0 -1 400 260)" points="0.0,12.64105 10.0,5.04308 20.0,4.26316 30.0,3.53985"/>

<polyline transform="matrix(1 0 0 -1 560 260)" points="0.0,0.21479 10.0,6.31509 20.0,20.00000 30.0,1.28558"/>

<polyline transform="matrix(1 0 0 -1 720 260)" points="0.0,0.65225 10.0,0.41195 20.0,0.25403 30.0,0.17164"/>

<polyline transform="matrix(1 0 0 -1 880 260)" points="0.0,8.32299 10.0,16.00794 20.0,16.33653 30.0,15.11047"/>

<polyline transform="matrix(1 0 0 -1 1040 260)" points="0.0,0.22487 10.0,0.11244 20.0,0.28236 30.0,0.23755"/>

<polyline transform="matrix(1 0 0 -1 80 280)" points="0.0,0.45517 10.0,0.11589 20.0,0.16033 30.0,0.10750"/>

<polyline transform="matrix(1 0 0 -1 240 280)" points="0.0,5.37931 10.0,10.48276 20.0,5.65517 30.0,9.51724"/>

<polyline transform="matrix(1 0 0 -1 400 280)" points="0.0,9.76665 10.0,4.82294 20.0,4.62167 30.0,3.43292"/>

<polyline transform="matrix(1 0 0 -1 560 280)" points="0.0,0.09337 10.0,0.59862 20.0,0.36991 30.0,0.14496"/>

<polyline transform="matrix(1 0 0 -1 720 280)" points="0.0,0.85136 10.0,0.06179 20.0,0.10985 30.0,0.11740"/>

<polyline transform="matrix(1 0 0 -1 880 280)" points="0.0,9.21557 10.0,12.38371 20.0,12.13359 30.0,13.07030"/>

<polyline transform="matrix(1 0 0 -1 1040 280)" points="0.0,0.28236 10.0,0.13780 20.0,0.12681 30.0,0.16400"/>

<polyline transform="matrix(1 0 0 -1 80 300)" points="0.0,0.51086 10.0,0.45048 20.0,0.25627 30.0,0.18147"/>

<polyline transform="matrix(1 0 0 -1 240 300)" points="0.0,10.48276 10.0,7.17241 20.0,10.62069 30.0,10.20690"/>

<polyline transform="matrix(1 0 0 -1 400 300)" points="0.0,13.70401 10.0,10.21951 20.0,6.07460 30.0,5.86075"/>

<polyline transform="matrix(1 0 0 -1 560 300)" points="0.0,0.07020 10.0,0.05398 20.0,0.03550 30.0,0.06305"/>

<polyline transform="matrix(1 0 0 -1 720 300)" points="0.0,0.74150 10.0,0.60419 20.0,0.31583 30.0,0.24717"/>

<polyline transform="matrix(1 0 0 -1 880 300)" points="0.0,10.74569 10.0,10.79964 20.0,10.13266 30.0,13.34984"/>

<polyline transform="matrix(1 0 0 -1 1040 300)" points="0.0,1.43546 10.0,0.80142 20.0,0.30856 30.0,1.27483"/>

<polyline transform="matrix(1 0 0 -1 80 320)" points="0.0,0.71412 10.0,0.29350 20.0,0.24939 30.0,0.19941"/>

<polyline transform="matrix(1 0 0 -1 240 320)" points="0.0,9.93103 10.0,6.20690 20.0,11.72414 30.0,8.82759"/>

<polyline transform="matrix(1 0 0 -1 400 320)" points="0.0,13.16938 10.0,8.93012 20.0,7.18158 30.0,6.15636"/>

<polyline transform="matrix(1 0 0 -1 560 320)" points="0.0,0.07593 10.0,0.03383 20.0,0.06184 30.0,0.06247"/>

<polyline transform="matrix(1 0 0 -1 720 320)" points="0.0,2.03913 10.0,0.26777 20.0,0.17164 30.0,0.13732"/>

<polyline transform="matrix(1 0 0 -1 880 320)" points="0.0,8.56330 10.0,9.79427 20.0,11.44700 30.0,14.11000"/>

<polyline transform="matrix(1 0 0 -1 1040 320)" points="0.0,0.86905 10.0,1.21566 20.0,1.04658 30.0,1.03813"/>

<polyline transform="matrix(1 0 0 -1 80 340)" points="0.0,0.65995 10.0,0.39782 20.0,0.16704"/>

<polyline transform="matrix(1 0 0 -1 240 340)" points="0.0,10.20690 10.0,6.34483 20.0,13.10345"/>

<polyline transform="matrix(1 0 0 -1 400 340)" points="0.0,14.87389 10.0,12.03095 20.0,5.68463"/>

<polyline transform="matrix(1 0 0 -1 560 340)" points="0.0,0.11678 10.0,0.04925 20.0,0.05314"/>

<polyline transform="matrix(1 0 0 -1 720 340)" points="0.0,0.56299 10.0,0.57673 20.0,0.17164"/>

<polyline transform="matrix(1 0 0 -1 880 340)" points="0.0,9.56867 10.0,9.46078 20.0,14.27184"/>

<polyline transform="matrix(1 0 0 -1 1040 340)" points="0.0,1.63835 10.0,1.10576 20.0,0.75915"/>

<polyline transform="matrix(1 0 0 -1 80 360)" points="0.0,0.53266 10.0,0.30071 20.0,0.19086 30.0,0.12327"/>

<polyline transform="matrix(1 0 0 -1 240 360)" points="0.0,15.17241 10.0,15.72414 20.0,17.24138 30.0,16.27586"/>

<polyline transform="matrix(1 0 0 -1 400 360)" points="0.0,12.48380 10.0,11.48374 20.0,9.35153 30.0,6.18152"/>

<polyline transform="matrix(1 0 0 -1 560 360)" points="0.0,0.12188 10.0,0.04077 20.0,0.06146 30.0,0.04432"/>

<polyline transform="matrix(1 0 0 -1 720 360)" points="0.0,2.03227 10.0,0.85136 20.0,0.59732 30.0,0.41195"/>

<polyline transform="matrix(1 0 0 -1 880 360)" points="0.0,8.97035 10.0,9.14691 20.0,11.41757 30.0,13.27628"/>

<polyline transform="matrix(1 0 0 -1 1040 360)" points="0.0,1.25793 10.0,1.06349 20.0,1.13957 30.0,0.88596"/>

<polyline transform="matrix(1 0 0 -1 80 380)" points="0.0,0.35824 10.0,0.71983 20.0,0.21316"/>

<polyline transform="matrix(1 0 0 -1 240 380)" points="0.0,8.82759 10.0,11.03448 20.0,8.13793"/>

<polyline transform="matrix(1 0 0 -1 400 380)" points="0.0,9.59683 10.0,17.23882 20.0,8.33260"/>

<polyline transform="matrix(1 0 0 -1 560 380)" points="0.0,0.05415 10.0,0.06865 20.0,0.03968"/>

<polyline transform="matrix(1 0 0 -1 720 380)" points="0.0,1.21524 10.0,1.09166 20.0,0.35015"/>

<polyline transform="matrix(1 0 0 -1 880 380)" points="0.0,10.40239 10.0,8.76928 20.0,11.76087"/>

<polyline transform="matrix(1 0 0 -1 1040 380)" points="0.0,0.79297 10.0,1.87505 20.0,0.97895"/>

<polyline transform="matrix(1 0 0 -1 80 400)" points="0.0,0.45014 10.0,0.23664 20.0,0.13618"/>

<polyline transform="matrix(1 0 0 -1 240 400)" points="0.0,7.31034 10.0,8.27586 20.0,6.20690"/>

<polyline transform="matrix(1 0 0 -1 400 400)" points="0.0,11.70388 10.0,9.15026 20.0,7.95522"/>

<polyline transform="matrix(1 0 0 -1 560 400)" points="0.0,0.02647 10.0,0.04649 20.0,0.04829"/>

<polyline transform="matrix(1 0 0 -1 720 400)" points="0.0,0.75524 10.0,0.30209 20.0,0.26777"/>

<polyline transform="matrix(1 0 0 -1 880 400)" points="0.0,7.41571 10.0,10.45144 20.0,13.17820"/>

<polyline transform="matrix(1 0 0 -1 1040 400)" points="0.0,0.88596 10.0,1.76515 20.0,2.10331"/>

<polyline transform="matrix(1 0 0 -1 80 420)" points="0.0,0.37685 10.0,0.17929 20.0,0.10063"/>

<polyline transform="matrix(1 0 0 -1 240 420)" points="0.0,12.00000 10.0,12.00000 20.0,8.68966"/>

<polyline transform="matrix(1 0 0 -1 400 420)" points="0.0,9.96163 10.0,7.11869 20.0,7.99925"/>

<polyline transform="matrix(1 0 0 -1 560 420)" points="0.0,0.04495 10.0,0.03859 20.0,0.03730"/>

<polyline transform="matrix(1 0 0 -1 720 420)" points="0.0,0.40508 10.0,0.50120 20.0,0.27463"/>

<polyline transform="matrix(1 0 0 -1 880 420)" points="0.0,10.22584 10.0,11.17236 20.0,10.86339"/>

<polyline transform="matrix(1 0 0 -1 1040 420)" points="0.0,0.91977 10.0,0.76761 20.0,1.55381"/>

<polyline transform="matrix(1 0 0 -1 80 440)" points="0.0,0.63698 10.0,0.33459 20.0,0.13887"/>

<polyline transform="matrix(1 0 0 -1 240 440)" points="0.0,8.68966 10.0,5.93103 20.0,5.93103"/>

<polyline transform="matrix(1 0 0 -1 400 440)" points="0.0,12.62218 10.0,9.76665 20.0,5.77269"/>

<polyline transform="matrix(1 0 0 -1 560 440)" points="0.0,0.73659 10.0,0.07789 20.0,0.02939"/>

<polyline transform="matrix(1 0 0 -1 720 440)" points="0.0,0.64538 10.0,0.46001 20.0,0.17851"/>

<polyline transform="matrix(1 0 0 -1 880 440)" points="0.0,10.22094 10.0,10.97129 20.0,12.10907"/>

<polyline transform="matrix(1 0 0 -1 1040 440)" points="0.0,0.66024 10.0,0.69152 20.0,0.44298"/>

<polyline transform="matrix(1 0 0 -1 80 460)" points="0.0,0.80016 10.0,0.30843 20.0,0.16620 30.0,0.13031"/>

<polyline transform="matrix(1 0 0 -1 240 460)" points="0.0,15.31034 10.0,13.37931 20.0,16.96552 30.0,13.37931"/>

<polyline transform="matrix(1 0 0 -1 400 460)" points="0.0,15.28901 10.0,10.72898 20.0,8.26970 30.0,6.88597"/>

<polyline transform="matrix(1 0 0 -1 560 460)" points="0.0,0.22273 10.0,0.10244 20.0,0.05256 30.0,0.03667"/>

<polyline transform="matrix(1 0 0 -1 720 460)" points="0.0,20.00000 10.0,1.18778 20.0,0.85822 30.0,0.50120"/>

<polyline transform="matrix(1 0 0 -1 880 460)" points="0.0,8.68591 10.0,9.48530 20.0,11.17726 30.0,10.37297"/>

<polyline transform="matrix(1 0 0 -1 1040 460)" points="0.0,1.09730 10.0,1.07194 20.0,0.75915 30.0,0.89441"/>

<polyline transform="matrix(1 0 0 -1 80 480)" points="0.0,0.45987 10.0,0.80855 20.0,0.12931"/>

<polyline transform="matrix(1 0 0 -1 240 480)" points="0.0,9.37931 10.0,13.79310 20.0,3.72414"/>

<polyline transform="matrix(1 0 0 -1 400 480)" points="0.0,7.70363 10.0,12.93666 20.0,5.30096"/>

<polyline transform="matrix(1 0 0 -1 560 480)" points="0.0,0.04144 10.0,0.09148 20.0,0.03416"/>

<polyline transform="matrix(1 0 0 -1 720 480)" points="0.0,0.71404 10.0,5.30038 20.0,0.53553"/>

<polyline transform="matrix(1 0 0 -1 880 480)" points="0.0,11.73635 10.0,7.88161 20.0,11.79520"/>

<polyline transform="matrix(1 0 0 -1 1040 480)" points="0.0,0.44805 10.0,0.67461 20.0,0.53428"/>

<polyline transform="matrix(1 0 0 -1 80 500)" points="0.0,0.37618 10.0,0.49828 20.0,0.21568"/>

<polyline transform="matrix(1 0 0 -1 240 500)" points="0.0,7.31034 10.0,12.13793 20.0,3.44828"/>

<polyline transform="matrix(1 0 0 -1 400 500)" points="0.0,8.93012 10.0,12.26995 20.0,5.13114"/>

<polyline transform="matrix(1 0 0 -1 560 500)" points="0.0,0.03015 10.0,0.04315 20.0,0.03173"/>

<polyline transform="matrix(1 0 0 -1 720 500)" points="0.0,1.18778 10.0,2.09406 20.0,0.59732"/>

<polyline transform="matrix(1 0 0 -1 880 500)" points="0.0,9.74032 10.0,8.89189 20.0,13.07521"/>

<polyline transform="matrix(1 0 0 -1 1040 500)" points="0.0,0.71096 10.0,1.03813 20.0,0.42523"/>

<polyline transform="matrix(1 0 0 -1 80 520)" points="0.0,0.26817 10.0,0.41509 20.0,0.16285"/>

<polyline transform="matrix(1 0 0 -1 240 520)" points="0.0,9.65517 10.0,9.51724 20.0,11.72414"/>

<polyline transform="matrix(1 0 0 -1 400 520)" points="0.0,6.79791 10.0,12.55928 20.0,4.54620"/>

<polyline transform="matrix(1 0 0 -1 560 520)" points="0.0,0.04215 10.0,0.05109 20.0,0.03161"/>

<polyline transform="matrix(1 0 0 -1 720 520)" points="0.0,0.52866 10.0,0.78270 20.0,0.51493"/>

<polyline transform="matrix(1 0 0 -1 880 520)" points="0.0,10.28469 10.0,9.05373 20.0,14.59552"/>

<polyline transform="matrix(1 0 0 -1 1040 520)" points="0.0,0.53935 10.0,1.22411 20.0,0.36351"/>

<polyline transform="matrix(1 0 0 -1 80 540)" points="0.0,0.62775 10.0,0.22054 20.0,0.16687"/>

<polyline transform="matrix(1 0 0 -1 240 540)" points="0.0,5.79310 10.0,4.82759 20.0,10.34483"/>

<polyline transform="matrix(1 0 0 -1 400 540)" points="0.0,14.07510 10.0,8.44581 20.0,6.07460"/>

<polyline transform="matrix(1 0 0 -1 560 540)" points="0.0,0.67513 10.0,0.02651 20.0,0.02413"/>

<polyline transform="matrix(1 0 0 -1 720 540)" points="0.0,1.81943 10.0,0.51493 20.0,0.40508"/>

<polyline transform="matrix(1 0 0 -1 880 540)" points="0.0,10.18170 10.0,8.40146 20.0,11.81972"/>

<polyline transform="matrix(1 0 0 -1 1040 540)" points="0.0,1.27483 10.0,0.62389 20.0,0.60783"/>

<polyline transform="matrix(1 0 0 -1 80 560)" points="0.0,0.46775 10.0,0.43807 20.0,0.10231"/>

<polyline transform="matrix(1 0 0 -1 240 560)" points="0.0,12.82759 10.0,9.24138 20.0,13.37931"/>

<polyline transform="matrix(1 0 0 -1 400 560)" points="0.0,10.10001 10.0,10.54029 20.0,5.89848"/>

<polyline transform="matrix(1 0 0 -1 560 560)" points="0.0,0.07672 10.0,0.07409 20.0,0.03274"/>

<polyline transform="matrix(1 0 0 -1 720 560)" points="0.0,1.14658 10.0,1.18091 20.0,0.67971"/>

<polyline transform="matrix(1 0 0 -1 880 560)" points="0.0,10.27488 10.0,9.55396 20.0,13.08992"/>

<polyline transform="matrix(1 0 0 -1 1040 560)" points="0.0,0.60276 10.0,1.12266 20.0,0.81326"/>

<polyline transform="matrix(1 0 0 -1 80 580)" points="0.0,0.53970 10.0,0.40201 20.0,0.17878 30.0,0.17627"/>

<polyline transform="matrix(1 0 0 -1 240 580)" points="0.0,14.75862 10.0,14.34483 20.0,17.65517 30.0,11.44828"/>

<polyline transform="matrix(1 0 0 -1 400 580)" points="0.0,13.28889 10.0,11.04975 20.0,7.31996 30.0,5.66577"/>

<polyline transform="matrix(1 0 0 -1 560 580)" points="0.0,0.05448 10.0,0.04645 20.0,0.04231 30.0,0.02760"/>

<polyline transform="matrix(1 0 0 -1 720 580)" points="0.0,1.79197 10.0,1.16032 20.0,0.39135 30.0,0.37075"/>

<polyline transform="matrix(1 0 0 -1 880 580)" points="0.0,9.67166 10.0,9.34308 20.0,11.16746 30.0,13.19781"/>

<polyline transform="matrix(1 0 0 -1 1040 580)" points="0.0,0.91977 10.0,1.08040 20.0,0.67461 30.0,0.39141"/>

<polyline transform="matrix(1 0 0 -1 80 600)" points="0.0,0.50499 10.0,0.35086 20.0,0.15681"/>

<polyline transform="matrix(1 0 0 -1 240 600)" points="0.0,5.10345 10.0,9.37931 20.0,3.86207"/>

<polyline transform="matrix(1 0 0 -1 400 600)" points="0.0,10.17548 10.0,9.59683 20.0,6.10604"/>

<polyline transform="matrix(1 0 0 -1 560 600)" points="0.0,0.03500 10.0,0.03082 20.0,0.02651"/>

<polyline transform="matrix(1 0 0 -1 720 600)" points="0.0,0.35702 10.0,0.48060 20.0,0.34329"/>

<polyline transform="matrix(1 0 0 -1 880 600)" points="0.0,10.84868 10.0,9.13710 20.0,12.17773"/>

<polyline transform="matrix(1 0 0 -1 1040 600)" points="0.0,0.78113 10.0,0.58162 20.0,0.72534"/>

<polyline transform="matrix(1 0 0 -1 80 620)" points="0.0,0.53333 10.0,0.26197 20.0,0.16704 30.0,0.09895"/>

<polyline transform="matrix(1 0 0 -1 240 620)" points="0.0,11.86207 10.0,11.31034 20.0,11.86207 30.0,8.68966"/>

<polyline transform="matrix(1 0 0 -1 400 620)" points="0.0,12.41462 10.0,8.77917 20.0,8.51500 30.0,6.71615"/>

<polyline transform="matrix(1 0 0 -1 560 620)" points="0.0,0.10235 10.0,0.03934 20.0,0.02116 30.0,0.03194"/>

<polyline transform="matrix(1 0 0 -1 720 620)" points="0.0,1.56540 10.0,0.48060 20.0,0.25403 30.0,0.28836"/>

<polyline transform="matrix(1 0 0 -1 880 620)" points="0.0,9.42645 10.0,8.39165 20.0,9.55886 30.0,11.71673"/>

<polyline transform="matrix(1 0 0 -1 1040 620)" points="0.0,1.04658 10.0,0.87750 20.0,1.08885 30.0,1.11421"/>

<polyline transform="matrix(1 0 0 -1 80 640)" points="0.0,0.88704 10.0,0.23698 20.0,0.20679 30.0,0.13937 40.0,0.14323 50.0,0.13887 60.0,0.13300"/>

<polyline transform="matrix(1 0 0 -1 240 640)" points="0.0,10.89655 10.0,4.55172 20.0,4.68966 30.0,5.65517 40.0,8.27586 50.0,7.44828 60.0,3.72414"/>

<polyline transform="matrix(1 0 0 -1 400 640)" points="0.0,13.55934 10.0,7.82313 20.0,6.34505 30.0,5.57771 40.0,5.35128 50.0,5.24435 60.0,5.20662"/>

<polyline transform="matrix(1 0 0 -1 560 640)" points="0.0,0.14095 10.0,0.02329 20.0,0.01877 30.0,0.02312 40.0,0.02822 50.0,0.02768 60.0,0.02266"/>

<polyline transform="matrix(1 0 0 -1 720 640)" points="0.0,0.81016 10.0,0.08926 20.0,0.10299 30.0,0.16478 40.0,0.19224 50.0,0.19224 60.0,0.10985"/>

<polyline transform="matrix(1 0 0 -1 880 640)" points="0.0,7.92575 10.0,7.65602 20.0,8.94583 30.0,10.77021 40.0,12.33957 50.0,12.21696 60.0,12.16302"/>

<polyline transform="matrix(1 0 0 -1 1040 640)" points="0.0,1.04658 10.0,0.46411 20.0,0.43283 30.0,0.48440 40.0,0.49370 50.0,0.54273 60.0,0.43030"/>

<polyline transform="matrix(1 0 0 -1 80 660)" points="0.0,0.82700 10.0,0.20277 20.0,0.18029 30.0,0.15631 40.0,0.15882 50.0,0.13467 60.0,0.14205"/>

<polyline transform="matrix(1 0 0 -1 240 660)" points="0.0,8.41379 10.0,8.00000 20.0,8.00000 30.0,9.51724 40.0,7.03448 50.0,15.17241 60.0,7.86207"/>

<polyline transform="matrix(1 0 0 -1 400 660)" points="0.0,15.99346 10.0,8.40179 20.0,6.79162 30.0,6.82307 40.0,6.36392 50.0,6.40166 60.0,5.87962"/>

<polyline transform="matrix(1 0 0 -1 560 660)" points="0.0,0.29381 10.0,0.02141 20.0,0.01417 30.0,0.02379 40.0,0.02208 50.0,0.02191 60.0,0.01944"/>

<polyline transform="matrix(1 0 0 -1 720 660)" points="0.0,1.01613 10.0,0.30209 20.0,0.21970 30.0,0.18538 40.0,0.27463 50.0,0.16478 60.0,0.50807"/>

<polyline transform="matrix(1 0 0 -1 880 660)" points="0.0,8.63687 10.0,8.32790 20.0,8.98507 30.0,9.87273 40.0,10.26998 50.0,10.12285 60.0,10.83397"/>

<polyline transform="matrix(1 0 0 -1 1040 660)" points="0.0,1.50309 10.0,0.80987 20.0,0.68138 30.0,0.88342 40.0,0.83524 50.0,0.78451 60.0,0.79719"/>

<polyline transform="matrix(1 0 0 -1 80 680)" points="0.0,0.42549 10.0,0.27874 20.0,0.18264 30.0,0.20646 40.0,0.16620 50.0,0.14692"/>

<polyline transform="matrix(1 0 0 -1 240 680)" points="0.0,10.34483 10.0,7.86207 20.0,7.72414 30.0,8.55172 40.0,14.89655 50.0,15.86207"/>

<polyline transform="matrix(1 0 0 -1 400 680)" points="0.0,10.13774 10.0,8.38292 20.0,7.96151 30.0,8.11246 40.0,7.22561 50.0,6.61551"/>

<polyline transform="matrix(1 0 0 -1 560 680)" points="0.0,0.10453 10.0,0.03516 20.0,0.08592 30.0,0.02354 40.0,0.02647 50.0,0.02793"/>

<polyline transform="matrix(1 0 0 -1 720 680)" points="0.0,1.30450 10.0,0.39135 20.0,0.26090 30.0,0.21970 40.0,0.27463 50.0,0.54926"/>

<polyline transform="matrix(1 0 0 -1 880 680)" points="0.0,9.29403 10.0,10.41220 20.0,11.56470 30.0,11.30968 40.0,12.39842 50.0,13.45774"/>

<polyline transform="matrix(1 0 0 -1 1040 680)" points="0.0,0.85214 10.0,0.37958 20.0,0.43368 30.0,0.51230 40.0,0.55541 50.0,0.55288"/>

<polyline transform="matrix(1 0 0 -1 80 700)" points="0.0,0.45517 10.0,0.44830 20.0,0.24285 30.0,0.19421"/>

<polyline transform="matrix(1 0 0 -1 240 700)" points="0.0,15.72414 10.0,12.13793 20.0,16.00000 30.0,15.72414"/>

<polyline transform="matrix(1 0 0 -1 400 700)" points="0.0,9.40185 10.0,11.84225 20.0,8.29486 30.0,5.06824"/>

<polyline transform="matrix(1 0 0 -1 560 700)" points="0.0,0.10524 10.0,0.40127 20.0,0.04616 30.0,0.02580"/>

<polyline transform="matrix(1 0 0 -1 720 700)" points="0.0,1.04360 10.0,1.05046 20.0,0.51493 30.0,0.32956"/>

<polyline transform="matrix(1 0 0 -1 880 700)" points="0.0,9.13710 10.0,10.39258 20.0,10.78492 30.0,11.54508"/>

<polyline transform="matrix(1 0 0 -1 1040 700)" points="0.0,0.63826 10.0,1.01277 20.0,0.91132 30.0,0.64925"/>

<polyline transform="matrix(1 0 0 -1 80 720)" points="0.0,0.32872 10.0,0.04864 20.0,0.04612 30.0,0.02164 40.0,0.00839 50.0,0.00788"/>

<polyline transform="matrix(1 0 0 -1 240 720)" points="0.0,12.41379 10.0,12.41379 20.0,17.93103 30.0,11.31034 40.0,12.13793 50.0,9.24138"/>

<polyline transform="matrix(1 0 0 -1 400 720)" points="0.0,7.79169 10.0,3.28197 20.0,1.79131 30.0,1.55859 40.0,1.69067 50.0,1.97371"/>

<polyline transform="matrix(1 0 0 -1 560 720)" points="0.0,0.05423 10.0,0.03617 20.0,0.04252 30.0,0.03006 40.0,0.03253 50.0,0.01739"/>

<polyline transform="matrix(1 0 0 -1 720 720)" points="0.0,1.70271 10.0,0.41195 20.0,0.26777 30.0,0.30896 40.0,0.15791 50.0,0.13045"/>

<polyline transform="matrix(1 0 0 -1 880 720)" points="0.0,9.76975 10.0,12.75643 20.0,14.46311 30.0,12.09926 40.0,12.60930 50.0,12.09926"/>

<polyline transform="matrix(1 0 0 -1 1040 720)" points="0.0,0.22825 10.0,0.20205 20.0,0.12596 30.0,0.12258 40.0,0.35252 50.0,0.49117"/>

<polyline transform="matrix(1 0 0 -1 80 740)" points="0.0,0.47782 10.0,0.17610 20.0,0.10029 30.0,0.07799 40.0,0.06591"/>

<polyline transform="matrix(1 0 0 -1 240 740)" points="0.0,14.48276 10.0,9.10345 20.0,12.68966 30.0,13.51724 40.0,13.65517"/>

<polyline transform="matrix(1 0 0 -1 400 740)" points="0.0,8.45839 10.0,5.67205 20.0,3.55871 30.0,2.90459 40.0,3.04925"/>

<polyline transform="matrix(1 0 0 -1 560 740)" points="0.0,0.04449 10.0,0.04244 20.0,0.02530 30.0,0.02128 40.0,0.01969"/>

<polyline transform="matrix(1 0 0 -1 720 740)" points="0.0,0.86509 10.0,0.25403 20.0,0.28836 30.0,0.18538 40.0,0.42568"/>

<polyline transform="matrix(1 0 0 -1 880 740)" points="0.0,11.50094 10.0,9.77955 20.0,12.69758 30.0,14.03644 40.0,13.75199"/>

<polyline transform="matrix(1 0 0 -1 1040 740)" points="0.0,0.24009 10.0,0.29250 20.0,0.22149 30.0,0.19528 40.0,0.27982"/>

<polyline transform="matrix(1 0 0 -1 80 760)" points="0.0,0.82867 10.0,0.38105 20.0,0.18532 30.0,0.20159"/>

<polyline transform="matrix(1 0 0 -1 240 760)" points="0.0,5.10345 10.0,6.34483 20.0,7.44828 30.0,5.37931"/>

<polyline transform="matrix(1 0 0 -1 400 760)" points="0.0,12.97440 10.0,8.00553 20.0,5.96138 30.0,3.84804"/>

<polyline transform="matrix(1 0 0 -1 560 760)" points="0.0,0.12694 10.0,0.07534 20.0,0.03688 30.0,0.06514"/>

<polyline transform="matrix(1 0 0 -1 720 760)" points="0.0,1.07106 10.0,0.61105 20.0,0.19224 30.0,0.44628"/>

<polyline transform="matrix(1 0 0 -1 880 760)" points="0.0,7.98460 10.0,10.68194 20.0,11.34401 30.0,11.89328"/>

<polyline transform="matrix(1 0 0 -1 1040 760)" points="0.0,0.59092 10.0,0.61206 20.0,0.45735 30.0,0.35760"/>

<polyline transform="matrix(1 0 0 -1 80 780)" points="0.0,0.96871 10.0,0.30138 20.0,0.19270"/>

<polyline transform="matrix(1 0 0 -1 240 780)" points="0.0,13.10345 10.0,7.72414 20.0,8.96552"/>

<polyline transform="matrix(1 0 0 -1 400 780)" points="0.0,15.91798 10.0,8.20681 20.0,7.03692"/>

<polyline transform="matrix(1 0 0 -1 560 780)" points="0.0,0.33186 10.0,0.07576 20.0,0.05385"/>

<polyline transform="matrix(1 0 0 -1 720 780)" points="0.0,2.78750 10.0,0.69344 20.0,0.15791"/>

<polyline transform="matrix(1 0 0 -1 880 780)" points="0.0,8.55840 10.0,12.15321 20.0,9.76484"/>

<polyline transform="matrix(1 0 0 -1 1040 780)" points="0.0,1.57917 10.0,0.53005 20.0,0.91132"/>

<polyline transform="matrix(1 0 0 -1 80 800)" points="0.0,0.51706 10.0,0.31195 20.0,0.17107"/>

<polyline transform="matrix(1 0 0 -1 240 800)" points="0.0,7.31034 10.0,5.51724 20.0,10.06897"/>

<polyline transform="matrix(1 0 0 -1 400 800)" points="0.0,11.25731 10.0,7.86087 20.0,6.65954"/>

<polyline transform="matrix(1 0 0 -1 560 800)" points="0.0,0.12673 10.0,0.03901 20.0,0.06104"/>

<polyline transform="matrix(1 0 0 -1 720 800)" points="0.0,1.40748 10.0,0.31583 20.0,0.17164"/>

<polyline transform="matrix(1 0 0 -1 880 800)" points="0.0,9.30875 10.0,9.69618 20.0,10.50048"/>

<polyline transform="matrix(1 0 0 -1 1040 800)" points="0.0,0.79550 10.0,0.76000 20.0,0.83524"/>

<polyline transform="matrix(1 0 0 -1 80 820)" points="0.0,0.41241 10.0,0.27153 20.0,0.21316"/>

<polyline transform="matrix(1 0 0 -1 240 820)" points="0.0,4.55172 10.0,3.72414 20.0,1.51724"/>

<polyline transform="matrix(1 0 0 -1 400 820)" points="0.0,9.61570 10.0,8.38292 20.0,8.25083"/>

<polyline transform="matrix(1 0 0 -1 560 820)" points="0.0,0.08270 10.0,0.05519 20.0,0.06865"/>

<polyline transform="matrix(1 0 0 -1 720 820)" points="0.0,0.65911 10.0,0.47374 20.0,0.21284"/>

<polyline transform="matrix(1 0 0 -1 880 820)" points="0.0,11.03504 10.0,10.33864 20.0,9.86783"/>

<polyline transform="matrix(1 0 0 -1 1040 820)" points="0.0,0.47088 10.0,0.47257 20.0,0.91132"/>

<polyline transform="matrix(1 0 0 -1 80 840)" points="0.0,0.45081 10.0,0.22407 20.0,0.11522 30.0,0.08168 40.0,0.06792 50.0,0.05535 60.0,0.04897"/>

<polyline transform="matrix(1 0 0 -1 240 840)" points="0.0,6.75862 10.0,7.72414 20.0,5.37931 30.0,7.17241 40.0,4.27586 50.0,1.65517 60.0,6.62069"/>

<polyline transform="matrix(1 0 0 -1 400 840)" points="0.0,9.74778 10.0,5.86704 20.0,4.90471 30.0,2.35738 40.0,2.84798 50.0,2.04290 60.0,1.79131"/>

<polyline transform="matrix(1 0 0 -1 560 840)" points="0.0,0.15918 10.0,0.82105 20.0,0.33980 30.0,0.19530 40.0,0.13079 50.0,0.34147 60.0,0.34649"/>

<polyline transform="matrix(1 0 0 -1 720 840)" points="0.0,0.60419 10.0,0.11672 20.0,0.09612 30.0,0.09612 40.0,0.10779 50.0,0.10985 60.0,0.07552"/>

<polyline transform="matrix(1 0 0 -1 880 840)" points="0.0,8.84775 10.0,11.86876 20.0,9.70109 30.0,11.11351 40.0,11.97175 50.0,10.54952 60.0,12.23658"/>

<polyline transform="matrix(1 0 0 -1 1040 840)" points="0.0,0.29504 10.0,0.18514 20.0,0.25108 30.0,0.14710 40.0,0.17922 50.0,0.15978 60.0,0.20120"/>

<polyline transform="matrix(1 0 0 -1 80 860)" points="0.0,0.78758 10.0,0.16738 20.0,0.12931 30.0,0.16084 40.0,0.08537 50.0,0.09358 60.0,0.03405 70.0,0.05753"/>

<polyline transform="matrix(1 0 0 -1 240 860)" points="0.0,4.68966 10.0,6.34483 20.0,6.89655 30.0,6.48276 40.0,7.44828 50.0,2.34483 60.0,6.48276 70.0,3.86207"/>

<polyline transform="matrix(1 0 0 -1 400 860)" points="0.0,12.05610 10.0,5.61545 20.0,3.45808 30.0,3.98012 40.0,3.16246 50.0,2.96748 60.0,2.05548 70.0,1.84163"/>

<polyline transform="matrix(1 0 0 -1 560 860)" points="0.0,0.09190 10.0,0.49492 20.0,0.41339 30.0,0.17394 40.0,0.09583 50.0,0.49576 60.0,0.19509 70.0,0.26789"/>

<polyline transform="matrix(1 0 0 -1 720 860)" points="0.0,0.65225 10.0,0.11672 20.0,0.02746 30.0,0.12358 40.0,0.01922 50.0,0.06866 60.0,0.05149 70.0,0.09337"/>

<polyline transform="matrix(1 0 0 -1 880 860)" points="0.0,7.93065 10.0,11.10860 20.0,12.72210 30.0,11.80501 40.0,11.28025 50.0,12.30034 60.0,12.63873 70.0,12.44256"/>

<polyline transform="matrix(1 0 0 -1 1040 860)" points="0.0,0.41424 10.0,0.25023 20.0,0.23840 30.0,0.24854 40.0,0.29757 50.0,0.23840 60.0,0.26968 70.0,0.13949"/>

<polyline transform="matrix(1 0 0 -1 80 880)" points="0.0,0.59840 10.0,0.03203 20.0,0.19488 30.0,0.10616 40.0,0.11807 50.0,0.10818 60.0,0.08889 70.0,0.08319 80.0,0.08906 90.0,0.04562"/>

<polyline transform="matrix(1 0 0 -1 240 880)" points="0.0,4.00000 10.0,3.17241 20.0,7.44828 30.0,2.06897 40.0,3.58621 50.0,7.31034 60.0,5.37931 70.0,2.62069 80.0,1.93103 90.0,1.37931"/>

<polyline transform="matrix(1 0 0 -1 400 880)" points="0.0,11.04346 10.0,1.24410 20.0,5.81043 30.0,4.37009 40.0,4.27574 50.0,3.35115 60.0,2.83540 70.0,2.03661 80.0,2.26933 90.0,0.99880"/>

<polyline transform="matrix(1 0 0 -1 560 880)" points="0.0,0.12460 10.0,0.18535 20.0,0.26329 30.0,0.48865 40.0,0.16658 50.0,0.16800 60.0,0.07334 70.0,0.07668 80.0,0.66426 90.0,0.20350"/>

<polyline transform="matrix(1 0 0 -1 720 880)" points="0.0,0.65225 10.0,0.16478 20.0,0.24717 30.0,0.11672 40.0,0.09612 50.0,0.17851 60.0,0.13045 70.0,0.16684 80.0,0.16478 90.0,0.04257"/>

<polyline transform="matrix(1 0 0 -1 880 880)" points="0.0,9.84821 10.0,11.83443 20.0,11.81972 30.0,15.50771 40.0,14.47292 50.0,12.20716 60.0,12.06493 70.0,13.79613 80.0,10.92715 90.0,14.00701"/>

<polyline transform="matrix(1 0 0 -1 1040 880)" points="0.0,0.28997 10.0,0.14371 20.0,0.23248 30.0,0.17753 40.0,0.21895 50.0,0.23840 60.0,0.20796 70.0,0.22994 80.0,0.17753 90.0,0.15724"/>

<polyline transform="matrix(1 0 0 -1 80 900)" points="0.0,0.81861 10.0,0.09325 20.0,0.13769 30.0,0.08939 40.0,0.05384 50.0,0.04394"/>

<polyline transform="matrix(1 0 0 -1 240 900)" points="0.0,5.79310 10.0,4.96552 20.0,4.00000 30.0,0.00000 40.0,3.44828 50.0,4.00000"/>

<polyline transform="matrix(1 0 0 -1 400 900)" points="0.0,10.98056 10.0,4.26316 20.0,2.92345 30.0,2.52091 40.0,1.98000 50.0,0.77238"/>

<polyline transform="matrix(1 0 0 -1 560 900)" points="0.0,0.09976 10.0,0.11795 20.0,0.89966 30.0,0.39499 40.0,0.47025 50.0,0.26053"/>

<polyline transform="matrix(1 0 0 -1 720 900)" points="0.0,0.65225 10.0,0.12358 20.0,0.23344 30.0,0.19911 40.0,0.30896 50.0,0.18538"/>

<polyline transform="matrix(1 0 0 -1 880 900)" points="0.0,7.92085 10.0,10.07381 20.0,16.44442 30.0,18.42083 40.0,14.95844 50.0,13.46755"/>

<polyline transform="matrix(1 0 0 -1 1040 900)" points="0.0,0.34238 10.0,0.17499 20.0,0.10398 30.0,0.12004 40.0,0.07693 50.0,0.02283"/>

<polyline transform="matrix(1 0 0 -1 80 920)" points="0.0,0.45517 10.0,20.00000 20.0,0.23111 30.0,0.15614 40.0,0.11388 50.0,0.12729 60.0,0.17895 70.0,0.15715"/>

<polyline transform="matrix(1 0 0 -1 240 920)" points="0.0,7.58621 10.0,5.79310 20.0,6.75862 30.0,7.72414 40.0,8.00000 50.0,9.93103 60.0,9.79310 70.0,5.37931"/>

<polyline transform="matrix(1 0 0 -1 400 920)" points="0.0,9.94905 10.0,0.00000 20.0,6.84823 30.0,4.24429 40.0,3.15617 50.0,3.35744 60.0,4.28832 70.0,4.04931"/>

<polyline transform="matrix(1 0 0 -1 560 920)" points="0.0,0.09730 10.0,0.00000 20.0,4.59663 30.0,0.57938 40.0,0.26956 50.0,1.01339 60.0,2.17115 70.0,1.66857"/>

<polyline transform="matrix(1 0 0 -1 720 920)" points="0.0,0.98181 10.0,0.05493 20.0,0.37762 30.0,0.08926 40.0,0.06866 50.0,0.13045 60.0,0.15791 70.0,0.12358"/>

<polyline transform="matrix(1 0 0 -1 880 920)" points="0.0,9.14200 10.0,0.00000 20.0,6.63103 30.0,8.71043 40.0,12.27581 50.0,10.77512 60.0,6.91057 70.0,6.89586"/>

<polyline transform="matrix(1 0 0 -1 1040 920)" points="0.0,1.38473 10.0,0.93668 20.0,2.25547 30.0,1.70598 40.0,1.63835 50.0,1.85815 60.0,2.04413 70.0,1.98495"/>

<polyline transform="matrix(1 0 0 -1 80 940)" points="0.0,0.33861 10.0,0.06122 20.0,0.04545 30.0,0.08352 40.0,0.05333 50.0,0.06491 60.0,0.07245 70.0,0.06272 80.0,0.05233 90.0,0.07430"/>

<polyline transform="matrix(1 0 0 -1 240 940)" points="0.0,7.86207 10.0,9.24138 20.0,6.48276 30.0,9.51724 40.0,9.51724 50.0,4.82759 60.0,5.10345 70.0,7.86207 80.0,4.96552 90.0,7.03448"/>

<polyline transform="matrix(1 0 0 -1 400 940)" points="0.0,6.51488 10.0,3.45179 20.0,1.93597 30.0,2.73476 40.0,1.84791 50.0,0.89817 60.0,2.31335 70.0,2.22530 80.0,1.70954 90.0,2.15611"/>

<polyline transform="matrix(1 0 0 -1 560 940)" points="0.0,0.05724 10.0,1.05143 20.0,0.22566 30.0,1.29227 40.0,0.53548 50.0,0.18982 60.0,0.80182 70.0,0.62705 80.0,0.22148 90.0,0.95736"/>

<polyline transform="matrix(1 0 0 -1 720 940)" points="0.0,0.71404 10.0,0.32269 20.0,0.32269 30.0,0.19224 40.0,0.19911 50.0,0.16478 70.0,0.22657 80.0,0.14418 90.0,0.46687"/>

<polyline transform="matrix(1 0 0 -1 880 940)" points="0.0,10.53481 10.0,9.09296 20.0,12.38371 30.0,10.21113 40.0,10.24055 50.0,13.59015 60.0,10.36806 70.0,11.50094 80.0,11.35872 90.0,8.93112"/>

<polyline transform="matrix(1 0 0 -1 1040 940)" points="0.0,1.06349 10.0,1.60453 20.0,1.26638 30.0,1.10576 40.0,1.40164 50.0,1.15479 60.0,1.49463 70.0,1.19875 80.0,1.14803 90.0,1.30019"/>

<polyline transform="matrix(1 0 0 -1 80 960)" points="0.0,1.04670 10.0,0.18180 20.0,0.14625 30.0,0.24251 40.0,0.19891 50.0,0.24822 60.0,0.17560 70.0,0.13518 80.0,0.15128 90.0,0.15631 100.0,0.14524"/>

<polyline transform="matrix(1 0 0 -1 240 960)" points="0.0,6.20690 10.0,5.79310 20.0,9.51724 30.0,7.86207 40.0,7.31034 50.0,9.65517 60.0,8.00000 70.0,10.75862 80.0,9.79310 90.0,4.96552 100.0,4.55172"/>

<polyline transform="matrix(1 0 0 -1 400 960)" points="0.0,12.10013 10.0,5.11227 20.0,5.01164 30.0,6.21926 40.0,4.89213 50.0,4.69086 60.0,4.14995 70.0,4.64683 80.0,4.62796 90.0,3.50211 100.0,5.06195"/>

<polyline transform="matrix(1 0 0 -1 560 960)" points="0.0,0.05168 10.0,2.72599 20.0,1.11666 30.0,2.04822 40.0,1.68153 50.0,0.93060 60.0,0.26747 70.0,0.14918 80.0,0.14613 90.0,0.08751 100.0,2.25435"/>

<polyline transform="matrix(1 0 0 -1 720 960)" points="0.0,1.48987 10.0,0.28150 20.0,0.21284 30.0,0.23344 40.0,0.14418 50.0,0.17164 60.0,0.12358 70.0,0.12358 80.0,0.21284 90.0,0.10985 100.0,0.26777"/>

<polyline transform="matrix(1 0 0 -1 880 960)" points="0.0,7.45494 10.0,5.39026 20.0,3.82580 30.0,9.40193 40.0,6.23379 50.0,7.44513 60.0,9.75013 70.0,9.34798 80.0,12.12378 90.0,11.66769 100.0,6.84682"/>

<polyline transform="matrix(1 0 0 -1 1040 960)" points="0.0,2.96559 10.0,4.57182 20.0,4.56336 30.0,4.25902 40.0,4.42810 50.0,3.87015 60.0,4.89306 70.0,4.97760 80.0,4.73244 90.0,4.90997 100.0,4.93533"/>

<polyline transform="matrix(1 0 0 -1 80 980)" points="0.0,0.43102 10.0,0.24352 20.0,0.17409 30.0,0.11992 40.0,0.14457 50.0,0.10801 60.0,0.09744 70.0,0.11337"/>

<polyline transform="matrix(1 0 0 -1 240 980)" points="0.0,6.75862 10.0,9.51724 20.0,9.10345 30.0,3.72414 40.0,7.03448 50.0,8.00000 60.0,11.58621 70.0,5.51724"/>

<polyline transform="matrix(1 0 0 -1 400 980)" points="0.0,7.91748 10.0,6.84823 20.0,5.48965 30.0,2.23788 40.0,3.33857 50.0,3.19391 60.0,2.33222 70.0,2.98006"/>

<polyline transform="matrix(1 0 0 -1 560 980)" points="0.0,0.06456 10.0,0.98872 20.0,1.62091 30.0,0.23778 40.0,0.47109 50.0,0.96530 60.0,0.30761 70.0,1.34955"/>

<polyline transform="matrix(1 0 0 -1 720 980)" points="0.0,1.48987 10.0,0.26090 20.0,0.28836 30.0,0.10299 40.0,0.13045 50.0,0.28150 60.0,0.17851 70.0,0.26090"/>

<polyline transform="matrix(1 0 0 -1 880 980)" points="0.0,9.29894 10.0,12.31014 20.0,4.92926 30.0,11.46171 40.0,12.65835 50.0,12.12378 60.0,12.76133 70.0,9.70109"/>

<polyline transform="matrix(1 0 0 -1 1040 980)" points="0.0,0.75915 10.0,1.15648 20.0,1.82433 30.0,0.86060 40.0,0.97895 50.0,1.28329 60.0,1.13957 70.0,1.44391"/>

<polyline transform="matrix(1 0 0 -1 80 1000)" points="0.0,0.56201 10.0,0.33107 20.0,0.29736 30.0,0.28075 40.0,0.25241 50.0,0.20629 60.0,0.19958"/>

<polyline transform="matrix(1 0 0 -1 240 1000)" points="0.0,8.96552 10.0,7.58621 20.0,10.89655 30.0,9.79310 40.0,8.55172 50.0,8.55172 60.0,8.96552"/>

<polyline transform="matrix(1 0 0 -1 400 1000)" points="0.0,8.79175 10.0,7.47091 20.0,7.88603 30.0,7.12498 40.0,6.13120 50.0,6.11233 60.0,5.72866"/>

<polyline transform="matrix(1 0 0 -1 560 1000)" points="0.0,0.49994 10.0,0.05252 20.0,0.97659 30.0,2.11177 40.0,1.21784 50.0,1.15638 60.0,0.23235"/>

<polyline transform="matrix(1 0 0 -1 720 1000)" points="0.0,1.02987 10.0,0.31583 20.0,0.26090 30.0,0.40508 40.0,0.19224 50.0,0.18538 60.0,0.23344"/>

<polyline transform="matrix(1 0 0 -1 880 1000)" points="0.0,11.78539 10.0,8.84775 20.0,13.32532 30.0,9.39212 40.0,7.73939 50.0,6.36130 60.0,9.51963"/>

<polyline transform="matrix(1 0 0 -1 1040 1000)" points="0.0,0.59261 10.0,0.64672 20.0,0.74647 30.0,0.89441 40.0,0.81833 50.0,0.90287 60.0,0.81833"/>

<polyline transform="matrix(1 0 0 -1 80 1020)" points="0.0,0.42750 10.0,0.21132 20.0,0.19757 30.0,0.20327 40.0,0.24788 50.0,0.18566 60.0,0.11975"/>

<polyline transform="matrix(1 0 0 -1 240 1020)" points="0.0,8.55172 10.0,5.10345 20.0,7.44828 30.0,6.34483 40.0,7.86207 50.0,8.96552 60.0,5.79310"/>

<polyline transform="matrix(1 0 0 -1 400 1020)" points="0.0,10.90509 10.0,7.69734 20.0,7.66589 30.0,6.88597 40.0,7.05579 50.0,6.65325 60.0,4.95503"/>

<polyline transform="matrix(1 0 0 -1 560 1020)" points="0.0,0.22398 10.0,0.08555 20.0,1.32488 30.0,0.48489 40.0,1.26300 50.0,0.54719 60.0,0.18886"/>

<polyline transform="matrix(1 0 0 -1 720 1020)" points="0.0,1.63405 10.0,0.27463 20.0,0.21284 30.0,0.19224 40.0,0.30896 50.0,0.26090 60.0,0.28836"/>

<polyline transform="matrix(1 0 0 -1 880 1020)" points="0.0,9.26461 10.0,12.41804 20.0,15.82649 30.0,14.63476 40.0,8.57311 50.0,10.33864 60.0,10.05910"/>

<polyline transform="matrix(1 0 0 -1 1040 1020)" points="0.0,1.04658 10.0,0.75662 20.0,0.90287 30.0,0.84369 40.0,0.88596 50.0,0.89441 60.0,0.94091"/>

<polyline transform="matrix(1 0 0 -1 80 1040)" points="0.0,0.71496 10.0,0.50163 20.0,0.13316 30.0,0.17023 40.0,0.15161 50.0,0.20813"/>

<polyline transform="matrix(1 0 0 -1 240 1040)" points="0.0,13.51724 10.0,9.93103 20.0,9.93103 30.0,12.96552 40.0,9.93103 50.0,12.13793"/>

<polyline transform="matrix(1 0 0 -1 400 1040)" points="0.0,11.45858 10.0,7.18158 20.0,3.64048 30.0,3.48324 40.0,3.46437 50.0,2.64671"/>

<polyline transform="matrix(1 0 0 -1 560 1040)" points="0.0,0.11486 10.0,4.59663 20.0,1.38342 30.0,1.87094 40.0,1.51303 50.0,1.45241"/>

<polyline transform="matrix(1 0 0 -1 720 1040)" points="0.0,1.27703 10.0,0.41881 20.0,0.17851 30.0,0.20597 40.0,0.28150 50.0,0.15105"/>

<polyline transform="matrix(1 0 0 -1 880 1040)" points="0.0,10.16699 10.0,4.61538 20.0,3.01170 30.0,3.13921 40.0,3.04112 50.0,2.95285"/>

<polyline transform="matrix(1 0 0 -1 1040 1040)" points="0.0,10.33731 10.0,8.26613 20.0,7.59828 30.0,7.44611 40.0,7.26858 50.0,7.39538"/>

<polyline transform="matrix(1 0 0 -1 80 1060)" points="0.0,0.46658 10.0,0.49224 20.0,0.12545 30.0,0.06189 40.0,0.06943 50.0,0.09576"/>

<polyline transform="matrix(1 0 0 -1 240 1060)" points="0.0,10.62069 10.0,5.24138 20.0,9.51724 30.0,7.72414 40.0,12.13793 50.0,6.20690"/>

<polyline transform="matrix(1 0 0 -1 400 1060)" points="0.0,10.55915 10.0,11.45858 20.0,5.94251 30.0,4.09334 40.0,3.83546 50.0,3.34486"/>

<polyline transform="matrix(1 0 0 -1 560 1060)" points="0.0,0.08831 10.0,0.11532 20.0,3.69225 30.0,2.66369 40.0,2.13477 50.0,2.95971"/>

<polyline transform="matrix(1 0 0 -1 720 1060)" points="0.0,0.85822 10.0,0.41195 20.0,0.09612 30.0,0.25403 40.0,0.30209 50.0,0.13732"/>

<polyline transform="matrix(1 0 0 -1 880 1060)" points="0.0,7.21463 10.0,7.92575 20.0,4.64481 30.0,3.49231 40.0,2.83514 50.0,3.60021"/>

<polyline transform="matrix(1 0 0 -1 1040 1060)" points="0.0,7.56446 10.0,10.47257 20.0,9.17068 30.0,9.88926 40.0,9.86389 50.0,8.84098"/>

<polyline transform="matrix(1 0 0 -1 80 1080)" points="0.0,0.42717 10.0,0.12327 20.0,0.12260 30.0,0.17224 40.0,0.16017 50.0,0.10281 60.0,0.13518 70.0,0.15245 80.0,0.16687 90.0,0.09560 100.0,0.12126"/>

<polyline transform="matrix(1 0 0 -1 240 1080)" points="0.0,8.13793 10.0,13.51724 20.0,7.31034 30.0,10.62069 40.0,10.89655 50.0,6.34483 60.0,10.75862 70.0,8.55172 80.0,8.27586 90.0,11.03448 100.0,7.31034"/>

<polyline transform="matrix(1 0 0 -1 400 1080)" points="0.0,9.25090 10.0,3.36373 20.0,1.91710 30.0,6.81049 40.0,5.14372 50.0,4.51475 60.0,3.61532 70.0,4.52104 80.0,4.06189 90.0,2.72218 100.0,1.85420"/>

<polyline transform="matrix(1 0 0 -1 560 1080)" points="0.0,0.55471 10.0,1.56112 20.0,2.23805 30.0,6.24401 40.0,3.70898 50.0,2.79163 60.0,2.09171 70.0,3.43553 80.0,4.16179 90.0,1.93742 100.0,1.47666"/>

<polyline transform="matrix(1 0 0 -1 720 1080)" points="0.0,0.89255 10.0,0.34329 20.0,0.30896 30.0,0.08239 40.0,0.10985 50.0,0.04119 60.0,0.10299 70.0,0.15791 80.0,0.13045 90.0,0.00000 100.0,0.18538"/>

<polyline transform="matrix(1 0 0 -1 880 1080)" points="0.0,8.85265 10.0,2.85476 20.0,3.23239 30.0,4.78213 40.0,4.35546 50.0,3.57078 60.0,2.80719 70.0,3.76205 80.0,4.25737 90.0,3.19806 100.0,2.59287"/>

<polyline transform="matrix(1 0 0 -1 1040 1080)" points="0.0,7.57291 10.0,7.46301 20.0,4.85079 30.0,8.40984 40.0,7.00651 50.0,9.27213 60.0,7.92797 70.0,6.89661 80.0,7.05723 90.0,6.80362 100.0,6.26258"/>

<polyline transform="matrix(1 0 0 -1 80 1100)" points="0.0,0.36360 10.0,0.21014 20.0,0.19539 30.0,0.19505 40.0,0.18029 50.0,0.12411 60.0,0.11287 70.0,0.11874"/>

<polyline transform="matrix(1 0 0 -1 240 1100)" points="0.0,8.27586 10.0,7.03448 20.0,8.68966 30.0,9.93103 40.0,7.86207 50.0,14.89655 60.0,9.10345 70.0,13.65517"/>

<polyline transform="matrix(1 0 0 -1 400 1100)" points="0.0,8.33889 10.0,7.74137 20.0,7.15642 30.0,6.79162 40.0,7.52123 50.0,5.62174 60.0,4.67828 70.0,4.69086"/>

<polyline transform="matrix(1 0 0 -1 560 1100)" points="0.0,0.02743 10.0,0.03705 20.0,0.20015 30.0,3.75204 40.0,4.82660 50.0,2.47554 60.0,1.35708 70.0,1.71958"/>

<polyline transform="matrix(1 0 0 -1 720 1100)" points="0.0,0.71404 10.0,0.08926 20.0,0.10985 30.0,0.11672 40.0,0.15791 50.0,0.04119 60.0,0.17164 70.0,0.23344"/>

<polyline transform="matrix(1 0 0 -1 880 1100)" points="0.0,9.08315 10.0,8.92622 20.0,10.26998 30.0,5.47853 40.0,4.94397 50.0,3.76205 60.0,3.49035 70.0,4.20833"/>

<polyline transform="matrix(1 0 0 -1 1040 1100)" points="0.0,8.89171 10.0,8.90861 20.0,8.88325 30.0,9.81317 40.0,11.38558 50.0,11.57156 60.0,11.31795 70.0,12.83118"/>

<polyline transform="matrix(1 0 0 -1 80 1120)" points="0.0,0.45450 10.0,0.12830 20.0,0.09845 30.0,0.13652 40.0,0.03723 50.0,0.06843"/>

<polyline transform="matrix(1 0 0 -1 240 1120)" points="0.0,8.68966 10.0,9.79310 20.0,12.55172 30.0,7.72414 40.0,7.31034 50.0,11.86207"/>

<polyline transform="matrix(1 0 0 -1 400 1120)" points="0.0,10.84219 10.0,6.55890 20.0,4.79779 30.0,5.84817 40.0,4.62796 50.0,4.11221"/>

<polyline transform="matrix(1 0 0 -1 560 1120)" points="0.0,0.24949 10.0,3.86493 20.0,1.57032 30.0,3.09602 40.0,2.05867 50.0,2.36473"/>

<polyline transform="matrix(1 0 0 -1 720 1120)" points="0.0,1.41435 10.0,0.59046 20.0,0.20597 30.0,0.15791 40.0,0.10299 50.0,0.24030"/>

<polyline transform="matrix(1 0 0 -1 880 1120)" points="0.0,10.80454 10.0,5.39026 20.0,2.74392 30.0,5.42458 40.0,3.23484 50.0,3.38442"/>

<polyline transform="matrix(1 0 0 -1 1040 1120)" points="0.0,8.33376 10.0,10.23586 20.0,10.53174 30.0,11.84208 40.0,11.76600 50.0,11.74909"/>

<polyline transform="matrix(1 0 0 -1 80 1140)" points="0.0,0.55815 10.0,0.22407 20.0,0.10650 30.0,0.17191"/>

<polyline transform="matrix(1 0 0 -1 240 1140)" points="0.0,17.24138 10.0,13.93103 20.0,11.03448 30.0,11.86207"/>

<polyline transform="matrix(1 0 0 -1 400 1140)" points="0.0,13.01843 10.0,9.78552 20.0,4.93616 30.0,4.67199"/>

<polyline transform="matrix(1 0 0 -1 560 1140)" points="0.0,0.06711 10.0,0.36071 20.0,0.79638 30.0,2.17742"/>

<polyline transform="matrix(1 0 0 -1 720 1140)" points="0.0,0.77583 10.0,0.38448 20.0,0.18538 30.0,0.06866"/>

<polyline transform="matrix(1 0 0 -1 880 1140)" points="0.0,9.28913 10.0,9.72070 20.0,8.29357 30.0,3.62963"/>

<polyline transform="matrix(1 0 0 -1 1040 1140)" points="0.0,20.00000 10.0,18.04717 20.0,10.10060 30.0,9.62719"/>

<polyline transform="matrix(1 0 0 -1 80 1160)" points="0.0,0.37115 10.0,0.35220 20.0,0.09325 30.0,0.06356 40.0,0.06960"/>

<polyline transform="matrix(1 0 0 -1 240 1160)" points="0.0,20.00000 10.0,10.89655 20.0,9.93103 30.0,7.03448 40.0,12.41379"/>

<polyline transform="matrix(1 0 0 -1 400 1160)" points="0.0,6.41424 10.0,8.68482 20.0,2.50833 30.0,1.43908 40.0,1.87936"/>

<polyline transform="matrix(1 0 0 -1 560 1160)" points="0.0,2.44961 10.0,2.21003 20.0,0.10913 30.0,0.03663 40.0,0.05026"/>

<polyline transform="matrix(1 0 0 -1 720 1160)" points="0.0,0.55613 10.0,0.56986 20.0,0.31583 30.0,0.18538 40.0,0.25403"/>

<polyline transform="matrix(1 0 0 -1 880 1160)" points="0.0,20.00000 10.0,19.45072 20.0,10.59366 30.0,12.47689 40.0,12.09926"/>

<polyline transform="matrix(1 0 0 -1 1040 1160)" points="0.0,0.26545 10.0,0.29926 20.0,0.16231 30.0,0.20458 40.0,0.12765"/>

<polyline transform="matrix(1 0 0 -1 80 1180)" points="0.0,0.58297 10.0,0.08671 20.0,0.12780 30.0,0.07480 40.0,0.03220 50.0,0.03019"/>

<polyline transform="matrix(1 0 0 -1 240 1180)" points="0.0,17.24138 10.0,14.34483 20.0,11.72414 30.0,13.79310 40.0,15.31034 50.0,12.55172"/>

<polyline transform="matrix(1 0 0 -1 400 1180)" points="0.0,11.26360 10.0,4.40782 20.0,4.32606 30.0,3.80401 40.0,3.08699 50.0,2.22530"/>

<polyline transform="matrix(1 0 0 -1 560 1180)" points="0.0,0.44726 10.0,0.30677 20.0,0.21709 30.0,0.08412 40.0,0.14028 50.0,0.05703"/>

<polyline transform="matrix(1 0 0 -1 720 1180)" points="0.0,1.13285 10.0,0.25403 20.0,0.54240 30.0,0.57673 40.0,0.32269 50.0,1.26330"/>

<polyline transform="matrix(1 0 0 -1 880 1180)" points="0.0,9.37250 10.0,7.06751 20.0,10.72607 30.0,10.79964 40.0,11.72164 50.0,12.30524"/>

<polyline transform="matrix(1 0 0 -1 1040 1180)" points="0.0,0.19359 10.0,0.20712 20.0,0.20796 30.0,0.21895 40.0,0.21811 50.0,0.23502"/>

<polyline transform="matrix(1 0 0 -1 80 1200)" points="0.0,0.35656 10.0,0.05367 20.0,0.08084 30.0,0.02616 40.0,0.03757"/>

<polyline transform="matrix(1 0 0 -1 240 1200)" points="0.0,12.41379 10.0,12.41379 20.0,11.03448 30.0,13.93103 40.0,13.65517"/>

<polyline transform="matrix(1 0 0 -1 400 1200)" points="0.0,7.86087 10.0,1.60891 20.0,2.25675 30.0,2.11208 40.0,1.42022"/>

<polyline transform="matrix(1 0 0 -1 560 1200)" points="0.0,0.32391 10.0,0.21144 20.0,0.10541 30.0,0.08755 40.0,0.11511"/>

<polyline transform="matrix(1 0 0 -1 720 1200)" points="0.0,1.35942 10.0,0.34329 20.0,0.29523 30.0,0.70031 40.0,0.12358"/>

<polyline transform="matrix(1 0 0 -1 880 1200)" points="0.0,10.04929 10.0,13.70295 20.0,11.04975 30.0,12.78586 40.0,14.52196"/>

<polyline transform="matrix(1 0 0 -1 1040 1200)" points="0.0,0.21642 10.0,0.18007 20.0,0.14879 30.0,0.18429 40.0,0.13695"/>

<polyline transform="matrix(1 0 0 -1 80 1220)" points="0.0,0.26499 10.0,0.15312 20.0,0.08805 30.0,0.06625"/>

<polyline transform="matrix(1 0 0 -1 240 1220)" points="0.0,11.17241 10.0,11.17241 20.0,10.20690 30.0,11.58621"/>

<polyline transform="matrix(1 0 0 -1 400 1220)" points="0.0,5.65948 10.0,4.67199 20.0,3.21278 30.0,2.20014"/>

<polyline transform="matrix(1 0 0 -1 560 1220)" points="0.0,0.64377 10.0,1.02760 20.0,0.12853 30.0,0.09822"/>

<polyline transform="matrix(1 0 0 -1 720 1220)" points="0.0,0.91315 10.0,0.11672 20.0,0.23344 30.0,0.19911"/>

<polyline transform="matrix(1 0 0 -1 880 1220)" points="0.0,8.72514 10.0,8.77909 20.0,11.71673 30.0,12.75153"/>

<polyline transform="matrix(1 0 0 -1 1040 1220)" points="0.0,0.27559 10.0,0.20458 20.0,0.36520 30.0,0.29419"/>

<polyline transform="matrix(1 0 0 -1 80 1240)" points="0.0,1.02154 10.0,0.03354 20.0,0.02952 30.0,0.09610 40.0,0.09342 50.0,0.08201 60.0,0.07597 70.0,0.07262 80.0,0.06843 90.0,0.05317 100.0,0.05317"/>

<polyline transform="matrix(1 0 0 -1 240 1240)" points="0.0,11.03448 10.0,9.24138 20.0,14.06897 30.0,11.31034 40.0,10.62069 50.0,7.17241 60.0,13.24138 70.0,15.03448 80.0,12.13793 90.0,8.27586 100.0,8.96552"/>

<polyline transform="matrix(1 0 0 -1 400 1240)" points="0.0,12.42091 10.0,1.43279 20.0,1.54601 30.0,3.91723 40.0,3.17504 50.0,2.82911 60.0,2.89830 70.0,3.82917 80.0,1.69067 90.0,1.87307 100.0,1.25668"/>

<polyline transform="matrix(1 0 0 -1 560 1240)" points="0.0,0.05971 10.0,0.01397 20.0,0.01493 30.0,0.04035 40.0,0.04896 50.0,0.04311 60.0,0.04340 70.0,0.04127 80.0,0.02496 90.0,0.01631 100.0,0.01748"/>

<polyline transform="matrix(1 0 0 -1 720 1240)" points="0.0,0.97494 10.0,2.39616 20.0,1.25644 30.0,0.33642 40.0,0.32956 50.0,0.39135 60.0,0.39135 70.0,0.53553 80.0,0.82389 90.0,2.75318 100.0,5.50635"/>

<polyline transform="matrix(1 0 0 -1 880 1240)" points="0.0,9.73051 10.0,12.04532 20.0,11.98646 30.0,10.72607 40.0,13.31061 50.0,14.82602 60.0,14.41897 70.0,14.15414 80.0,13.08992 90.0,11.52547 100.0,11.79520"/>

<polyline transform="matrix(1 0 0 -1 1040 1240)" points="0.0,0.28236 10.0,0.23924 20.0,0.20543 30.0,0.23332 40.0,0.34238 50.0,0.26291 60.0,0.29250 70.0,0.47088 80.0,0.20120 90.0,0.22994 100.0,0.22318"/>

<polyline transform="matrix(1 0 0 -1 80 1260)" points="0.0,0.30037 10.0,0.02247 20.0,0.13249 30.0,0.04293 40.0,0.00000 50.0,0.00302 60.0,0.01140 70.0,0.01208 80.0,0.00788 90.0,0.00839"/>

<polyline transform="matrix(1 0 0 -1 240 1260)" points="0.0,6.75862 10.0,6.34483 20.0,8.41379 30.0,3.86207 40.0,10.62069 50.0,12.00000 60.0,9.24138 70.0,8.41379 80.0,11.03448 90.0,8.96552"/>

<polyline transform="matrix(1 0 0 -1 400 1260)" points="0.0,7.08724 10.0,2.72847 20.0,6.04315 30.0,4.03044 40.0,2.42657 50.0,3.55242 60.0,3.60274 70.0,2.99264 80.0,2.77879 90.0,2.65929"/>

<polyline transform="matrix(1 0 0 -1 560 1260)" points="0.0,0.03721 10.0,0.02496 20.0,0.04733 30.0,0.06046 40.0,0.03909 50.0,0.05218 60.0,0.03771 70.0,0.02852 80.0,0.02638 90.0,0.02417"/>

<polyline transform="matrix(1 0 0 -1 720 1260)" points="0.0,0.84449 10.0,0.17164 20.0,0.98867 30.0,0.28150 40.0,0.50120 50.0,0.68658 60.0,0.28150 70.0,0.21284 80.0,0.29523 90.0,0.22657"/>

<polyline transform="matrix(1 0 0 -1 880 1260)" points="0.0,10.84378 10.0,13.28609 20.0,12.01589 30.0,12.84471 40.0,17.68520 50.0,12.36409 60.0,10.37297 70.0,10.82906 80.0,12.44256 90.0,13.40379"/>

<polyline transform="matrix(1 0 0 -1 1040 1260)" points="0.0,0.25530 10.0,0.18345 20.0,0.22741 30.0,0.27306 40.0,0.21134 50.0,0.29504 60.0,0.27390 70.0,0.22572 80.0,0.24854 90.0,0.16739"/>

<polyline transform="matrix(1 0 0 -1 80 1280)" points="0.0,0.38574 10.0,0.50197 20.0,0.13618 30.0,0.07396 40.0,0.08604 50.0,0.06574 60.0,0.03237 70.0,0.02113"/>

<polyline transform="matrix(1 0 0 -1 240 1280)" points="0.0,13.79310 10.0,12.00000 20.0,7.17241 30.0,11.03448 40.0,12.27586 50.0,10.20690 60.0,10.75862 70.0,6.20690"/>

<polyline transform="matrix(1 0 0 -1 400 1280)" points="0.0,7.82313 10.0,10.19435 20.0,3.94239 30.0,3.87320 40.0,1.58375 50.0,0.79753 60.0,1.81018 70.0,2.07434"/>

<polyline transform="matrix(1 0 0 -1 560 1280)" points="0.0,0.22265 10.0,0.12949 20.0,0.15408 30.0,0.07551 40.0,0.22022 50.0,0.25702 60.0,0.04064 70.0,0.03617"/>

<polyline transform="matrix(1 0 0 -1 720 1280)" points="0.0,0.54926 10.0,1.50360 20.0,0.40508 30.0,0.15105 40.0,0.40508 50.0,0.35015 60.0,0.17164 70.0,0.15105"/>

<polyline transform="matrix(1 0 0 -1 880 1280)" points="0.0,10.42691 10.0,7.77862 20.0,11.49604 30.0,10.66722 40.0,14.05115 50.0,13.99720 60.0,13.27138 70.0,13.33023"/>

<polyline transform="matrix(1 0 0 -1 1040 1280)" points="0.0,0.29504 10.0,0.25869 20.0,0.13695 30.0,0.13780 40.0,0.12427 50.0,0.12596 60.0,0.18683 70.0,0.24093"/>

<polyline transform="matrix(1 0 0 -1 80 1300)" points="0.0,0.17945 10.0,0.06289 20.0,0.04511 30.0,0.04847 40.0,0.03723 50.0,0.04444 60.0,0.03522 70.0,0.18482 80.0,0.39530 90.0,0.42079 100.0,0.25694 110.0,0.20444 120.0,0.20411 130.0,0.19254 140.0,0.16973 150.0,0.07212"/>

<polyline transform="matrix(1 0 0 -1 240 1300)" points="0.0,4.55172 10.0,3.58621 20.0,6.62069 30.0,7.72414 40.0,7.86207 50.0,8.55172 60.0,5.37931 70.0,4.13793 80.0,6.34483 90.0,4.96552 100.0,5.79310 110.0,10.89655 120.0,9.37931 130.0,9.79310 140.0,8.27586 150.0,6.75862"/>

<polyline transform="matrix(1 0 0 -1 400 1300)" points="0.0,4.91729 10.0,1.91710 20.0,2.18127 30.0,2.24417 40.0,2.67816 50.0,2.33222 60.0,2.96119 70.0,2.16869 80.0,3.23794 90.0,3.03038 100.0,1.88565 110.0,1.52085 120.0,1.57746 130.0,1.69696 140.0,1.78502 150.0,1.37619"/>

<polyline transform="matrix(1 0 0 -1 560 1300)" points="0.0,0.06004 10.0,0.03663 20.0,0.03487 30.0,0.03679 40.0,0.03868 50.0,0.03500 60.0,0.03383 70.0,0.03847 80.0,0.57980 90.0,0.10838 100.0,0.05055 110.0,0.04332 120.0,0.04641 130.0,0.03909 140.0,0.03734 150.0,0.03429"/>

<polyline transform="matrix(1 0 0 -1 720 1300)" points="0.0,0.45314 10.0,1.55853 20.0,2.37556 30.0,1.77137 40.0,0.79643 50.0,0.78270 60.0,0.76897 70.0,0.94748 80.0,3.26811 90.0,2.05287 100.0,1.83316 110.0,1.28390 120.0,1.67525 130.0,2.38929 140.0,2.99348 150.0,0.63165"/>

<polyline transform="matrix(1 0 0 -1 880 1300)" points="0.0,10.33864 10.0,12.28562 20.0,12.25129 30.0,12.53084 40.0,12.70248 50.0,12.63873 60.0,12.29053 70.0,13.31551 80.0,13.46264 90.0,12.06984 100.0,12.37390 110.0,13.09973 120.0,12.38371 130.0,11.55489 140.0,12.01099 150.0,12.27091"/>

<polyline transform="matrix(1 0 0 -1 1040 1300)" points="0.0,0.00000 10.0,0.05833 20.0,0.08876 30.0,0.07777 40.0,0.10567 50.0,0.08369 60.0,0.12765 70.0,0.12934 80.0,0.11582 90.0,0.05326 100.0,0.10229 110.0,0.12934 120.0,0.05580 130.0,0.10229 140.0,0.09046 150.0,0.06509"/>

<polyline transform="matrix(1 0 0 -1 80 1320)" points="0.0,0.28981 10.0,0.33593 20.0,0.10549 30.0,0.07010 40.0,0.06256 50.0,0.05635 60.0,0.07061 70.0,0.06054 80.0,0.11455"/>

<polyline transform="matrix(1 0 0 -1 240 1320)" points="0.0,6.20690 10.0,7.44828 20.0,7.58621 30.0,9.51724 40.0,8.82759 50.0,5.51724 60.0,10.48276 70.0,6.06897 80.0,8.68966"/>

<polyline transform="matrix(1 0 0 -1 400 1320)" points="0.0,7.11869 10.0,7.50236 20.0,3.82917 30.0,2.81653 40.0,2.78508 50.0,3.31342 60.0,2.75363 70.0,2.50204 80.0,1.96742"/>

<polyline transform="matrix(1 0 0 -1 560 1320)" points="0.0,1.17185 10.0,0.09073 20.0,0.48907 30.0,0.07233 40.0,0.24071 50.0,0.19973 60.0,0.11323 70.0,0.08019 80.0,0.05101"/>

<polyline transform="matrix(1 0 0 -1 720 1320)" points="0.0,0.53553 10.0,1.83316 20.0,0.36389 30.0,0.13045 40.0,0.17851 50.0,0.28150 60.0,0.24030 70.0,0.13732 80.0,0.10299"/>

<polyline transform="matrix(1 0 0 -1 880 1320)" points="0.0,17.39585 10.0,10.14737 20.0,19.31341 30.0,13.07030 40.0,15.24779 50.0,12.46218 60.0,14.07077 70.0,13.83046 80.0,12.96731"/>

<polyline transform="matrix(1 0 0 -1 1040 1320)" points="0.0,0.26038 10.0,0.25530 20.0,0.17330 30.0,0.17246 40.0,0.14371 50.0,0.17077 60.0,0.19697 70.0,0.15555 80.0,0.14879"/>

<polyline transform="matrix(1 0 0 -1 80 1340)" points="0.0,0.28545 10.0,0.05652 20.0,0.04998 30.0,0.07480 40.0,0.15430 50.0,0.04813 60.0,0.05685 70.0,0.04495 80.0,0.03908 90.0,0.03723 100.0,0.04998 110.0,0.04813"/>

<polyline transform="matrix(1 0 0 -1 240 1340)" points="0.0,8.41379 10.0,10.20690 20.0,8.27586 30.0,10.89655 40.0,9.24138 50.0,6.34483 60.0,8.68966 70.0,10.48276 80.0,7.72414 90.0,6.62069 100.0,6.48276 110.0,10.62069"/>

<polyline transform="matrix(1 0 0 -1 400 1340)" points="0.0,6.72244 10.0,0.00503 20.0,0.35097 30.0,1.26297 40.0,5.87962 50.0,2.00516 60.0,1.62149 70.0,1.25039 80.0,1.11202 90.0,0.80382 100.0,1.96113 110.0,0.31952"/>

<polyline transform="matrix(1 0 0 -1 560 1340)" points="0.0,0.15027 10.0,0.76335 20.0,0.27876 30.0,0.36280 40.0,0.25911 50.0,1.29645 60.0,2.81128 70.0,0.89924 80.0,0.46649 90.0,0.86119 100.0,0.88252 110.0,1.03429"/>

<polyline transform="matrix(1 0 0 -1 720 1340)" points="0.0,0.35702 10.0,0.28836 20.0,0.30896 30.0,0.38448 40.0,0.50807 50.0,0.52866 60.0,0.31583 70.0,0.15791 80.0,0.07552 90.0,0.17851 100.0,0.17164 110.0,0.10985"/>

<polyline transform="matrix(1 0 0 -1 880 1340)" points="0.0,10.67213 10.0,13.49697 20.0,14.00211 30.0,13.34004 40.0,12.11888 50.0,11.57941 60.0,12.82509 70.0,11.52056 80.0,13.13896 90.0,10.97129 100.0,11.89328 110.0,11.16746"/>

<polyline transform="matrix(1 0 0 -1 1040 1340)" points="0.0,0.19359 10.0,0.04565 20.0,0.08369 30.0,0.12850 40.0,0.15809 50.0,0.19782 60.0,0.16739 70.0,0.15301 80.0,0.13103 90.0,0.10398 100.0,0.21050 110.0,0.08369"/>

<polyline transform="matrix(1 0 0 -1 80 1360)" points="0.0,0.29048 10.0,0.27522 20.0,0.12579 30.0,0.12025 40.0,0.10264 50.0,0.08101 60.0,0.11304 70.0,0.09610 80.0,0.10482"/>

<polyline transform="matrix(1 0 0 -1 240 1360)" points="0.0,11.44828 10.0,5.65517 20.0,6.89655 30.0,5.24138 40.0,8.96552 50.0,9.37931 60.0,7.03448 70.0,5.79310 80.0,12.55172"/>

<polyline transform="matrix(1 0 0 -1 400 1360)" points="0.0,6.41424 10.0,7.26335 20.0,4.94874 30.0,3.37631 40.0,2.75992 50.0,2.71589 60.0,2.67816 70.0,2.39512 80.0,2.01145"/>

<polyline transform="matrix(1 0 0 -1 560 1360)" points="0.0,0.10863 10.0,0.13292 20.0,0.11314 30.0,0.09926 40.0,0.42384 50.0,0.16482 60.0,0.16578 70.0,0.19175 80.0,0.31095"/>

<polyline transform="matrix(1 0 0 -1 720 1360)" points="0.0,12.31033 10.0,2.62273 20.0,2.31377 30.0,1.86062 40.0,3.64573 50.0,3.19945 60.0,0.44628 70.0,3.41229 80.0,1.75077"/>

<polyline transform="matrix(1 0 0 -1 880 1360)" points="0.0,10.70646 10.0,11.14293 20.0,13.70785 30.0,14.78188 40.0,16.46404 50.0,16.54251 60.0,14.76717 70.0,16.00304 80.0,15.05162"/>

<polyline transform="matrix(1 0 0 -1 1040 1360)" points="0.0,0.23924 10.0,0.20458 20.0,0.16316 30.0,0.09215 40.0,0.09891 50.0,0.12343 60.0,0.03466 70.0,0.06171 80.0,0.09046"/>

<polyline transform="matrix(1 0 0 -1 80 1380)" points="0.0,0.36075 10.0,0.13669 20.0,0.12025 30.0,0.06809 40.0,0.09996 50.0,0.06105 60.0,0.09275 70.0,0.08855 80.0,0.05954"/>

<polyline transform="matrix(1 0 0 -1 240 1380)" points="0.0,8.13793 10.0,10.20690 20.0,10.48276 30.0,7.03448 40.0,8.55172 50.0,9.65517 60.0,5.37931 70.0,9.24138 80.0,9.37931"/>

<polyline transform="matrix(1 0 0 -1 400 1380)" points="0.0,7.25077 10.0,5.65948 20.0,3.64677 30.0,3.25681 40.0,2.73476 50.0,2.92974 60.0,3.18133 70.0,2.64671 80.0,2.26304"/>

<polyline transform="matrix(1 0 0 -1 560 1380)" points="0.0,12.25232 10.0,2.17575 20.0,1.45575 30.0,0.47945 40.0,0.65715 50.0,0.33019 60.0,0.26207 70.0,0.90259 80.0,0.26120"/>

<polyline transform="matrix(1 0 0 -1 720 1380)" points="0.0,2.34123 10.0,0.80330 20.0,0.78956 30.0,1.59973 40.0,0.55613 50.0,1.01613 60.0,1.88122 70.0,0.29523 80.0,0.39135"/>

<polyline transform="matrix(1 0 0 -1 880 1380)" points="0.0,14.96825 10.0,12.57988 20.0,15.16441 30.0,14.20318 40.0,16.49347 50.0,14.15904 60.0,13.67843 70.0,12.22677 80.0,14.46311"/>

<polyline transform="matrix(1 0 0 -1 1040 1380)" points="0.0,0.34830 10.0,0.29335 20.0,0.20965 30.0,0.16908 40.0,0.15978 50.0,0.15640 60.0,0.20036 70.0,0.13949 80.0,0.10821"/>

</svg>
